<?xml version="1.0" encoding="utf-8"?>
<!-- Generator: Adobe Illustrator 15.0.0, SVG Export Plug-In . SVG Version: 6.00 Build 0)  -->
<!DOCTYPE svg PUBLIC "-//W3C//DTD SVG 1.1//EN" "http://www.w3.org/Graphics/SVG/1.1/DTD/svg11.dtd" [
	<!ENTITY ns_flows "http://ns.adobe.com/Flows/1.0/">
	<!ENTITY ns_extend "http://ns.adobe.com/Extensibility/1.0/">
	<!ENTITY ns_ai "http://ns.adobe.com/AdobeIllustrator/10.0/">
	<!ENTITY ns_graphs "http://ns.adobe.com/Graphs/1.0/">
]>
<svg version="1.1" id="Calque_1" xmlns:x="&ns_extend;" xmlns:i="&ns_ai;" xmlns:graph="&ns_graphs;"
	 xmlns="http://www.w3.org/2000/svg" xmlns:xlink="http://www.w3.org/1999/xlink" xmlns:a="http://ns.adobe.com/AdobeSVGViewerExtensions/3.0/"
	 x="0px" y="0px" width="31.875px" height="31.875px" viewBox="0 0 31.875 31.875" enable-background="new 0 0 31.875 31.875"
	 xml:space="preserve">
<g>
	<path fill="#FFFFFF" d="M24.033,13.664l-6.241-6.241c-1.024-1.024-2.684-1.023-3.707,0l-6.241,6.241
		c-1.024,1.023-1.025,2.684,0,3.708l0.885,0.003c-0.001,0.042-0.011,0.082-0.011,0.124v5.284c0,1.346,1.093,2.438,2.438,2.438H13.2
		c0-0.008-0.001-0.015-0.001-0.022v-4.039c0-1.273,1.033-2.308,2.308-2.308h0.73c1.275,0,2.308,1.034,2.308,2.308v4.039
		c0,0.008-0.002,0.015-0.002,0.022h2.044c1.347,0,2.438-1.093,2.438-2.438v-5.284c0-0.042-0.012-0.082-0.014-0.124l1.021-0.003
		C25.057,16.347,25.057,14.687,24.033,13.664z"/>
</g>
</svg>
