<?xml version="1.0" encoding="utf-8"?>
<!-- Generator: Adobe Illustrator 15.0.0, SVG Export Plug-In . SVG Version: 6.00 Build 0)  -->
<!DOCTYPE svg PUBLIC "-//W3C//DTD SVG 1.1//EN" "http://www.w3.org/Graphics/SVG/1.1/DTD/svg11.dtd" [
	<!ENTITY ns_flows "http://ns.adobe.com/Flows/1.0/">
	<!ENTITY ns_extend "http://ns.adobe.com/Extensibility/1.0/">
	<!ENTITY ns_ai "http://ns.adobe.com/AdobeIllustrator/10.0/">
	<!ENTITY ns_graphs "http://ns.adobe.com/Graphs/1.0/">
]>
<svg version="1.1" id="Calque_1" xmlns:x="&ns_extend;" xmlns:i="&ns_ai;" xmlns:graph="&ns_graphs;"
	 xmlns="http://www.w3.org/2000/svg" xmlns:xlink="http://www.w3.org/1999/xlink" xmlns:a="http://ns.adobe.com/AdobeSVGViewerExtensions/3.0/"
	 x="0px" y="0px" width="26.695px" height="17.382px" viewBox="0 0 26.695 17.382" enable-background="new 0 0 26.695 17.382"
	 xml:space="preserve">
<g>
	<g>
		<g>
			<path fill="#C6C6C6" d="M19.628,8.852c0,0.875-0.707,1.582-1.579,1.582c-0.871,0-1.578-0.707-1.578-1.582
				c0-0.867,0.707-1.574,1.578-1.574C18.921,7.277,19.628,7.984,19.628,8.852z"/>
			<path fill="#C6C6C6" d="M18.004,6.799c-0.2-0.151-0.439-0.303-0.583-0.454c0.01-0.151,0.002-0.063,0.005-0.215V5.221V4.313V3.858
				c0.146-0.15,0.385-0.303,0.578-0.454c0.193,0.151,0.417,0.304,0.562,0.454v0.455v0.907V6.13c0.002,0.151-0.005,0.063,0.004,0.215
				C18.428,6.496,18.205,6.647,18.004,6.799z"/>
			<path fill="#C6C6C6" d="M14.232,12.715c-0.034-0.249-0.097-0.524-0.091-0.733c0.114-0.1,0.215-0.212,0.324-0.317l0.643-0.644
				l0.641-0.642l0.201-0.189c0.209-0.003,0.487,0.059,0.73,0.088c0.029,0.243,0.08,0.509,0.077,0.719l-0.201,0.189l-0.641,0.642
				l-0.643,0.644c-0.105,0.108-0.217,0.21-0.318,0.324C14.747,12.801,14.481,12.75,14.232,12.715z"/>
			<g>
				<path fill="#C6C6C6" d="M18.29,17.382l-0.026-0.013c4.671-0.139,8.432-3.974,8.432-8.679c0-4.792-3.899-8.69-8.691-8.69
					c-0.012,0-0.024,0.001-0.036,0.001C17.966,0.001,17.966,0,17.964,0h-6.033H1.623C0.727,0,0,0.727,0,1.622
					c0,0.896,0.727,1.623,1.623,1.623h7.289h2.33c-0.879,1.09-1.5,2.395-1.771,3.823H7.528H1.623C0.727,7.068,0,7.795,0,8.69
					c0,0.896,0.727,1.623,1.623,1.623h5.905h1.943c0.271,1.429,0.891,2.733,1.771,3.823h-2.33H1.623C0.727,14.137,0,14.863,0,15.759
					c0,0.896,0.727,1.623,1.623,1.623h10.308H18.29z M18.004,2.841c3.226,0,5.851,2.623,5.851,5.85c0,3.228-2.625,5.852-5.851,5.852
					c-3.227,0-5.851-2.624-5.851-5.852C12.153,5.464,14.777,2.841,18.004,2.841z"/>
			</g>
		</g>
	</g>
</g>
</svg>
