<?xml version="1.0" encoding="utf-8"?>
<!-- Generator: Adobe Illustrator 15.0.0, SVG Export Plug-In . SVG Version: 6.00 Build 0)  -->
<!DOCTYPE svg PUBLIC "-//W3C//DTD SVG 1.1//EN" "http://www.w3.org/Graphics/SVG/1.1/DTD/svg11.dtd" [
	<!ENTITY ns_flows "http://ns.adobe.com/Flows/1.0/">
	<!ENTITY ns_extend "http://ns.adobe.com/Extensibility/1.0/">
	<!ENTITY ns_ai "http://ns.adobe.com/AdobeIllustrator/10.0/">
	<!ENTITY ns_graphs "http://ns.adobe.com/Graphs/1.0/">
]>
<svg version="1.1" id="Calque_1" xmlns:x="&ns_extend;" xmlns:i="&ns_ai;" xmlns:graph="&ns_graphs;"
	 xmlns="http://www.w3.org/2000/svg" xmlns:xlink="http://www.w3.org/1999/xlink" xmlns:a="http://ns.adobe.com/AdobeSVGViewerExtensions/3.0/"
	 x="0px" y="0px" width="168.592px" height="44.25px" viewBox="39.777 3.334 168.592 44.25"
	 enable-background="new 39.777 3.334 168.592 44.25" xml:space="preserve">
<g>
	<path fill="#FFFFFF" d="M102.18,31.071c0.87,2.782,4.59,3.385,7.27,3.385c2.85,0,7.272-0.872,7.272-4.256
		c0-2.915-3.519-3.149-7.205-3.45c-4.623-0.369-9.583-0.805-9.583-5.797c0-4.423,5.093-6.4,9.181-6.4
		c3.52,0,7.908,0.837,9.314,4.658c0.504,1.34-1.774,1.943-2.277,0.804c-1.005-2.546-4.591-2.982-7.003-2.982
		c-2.245,0-6.601,0.904-6.601,3.954c0,2.915,3.351,3.216,7.236,3.518c4.592,0.402,9.518,0.637,9.518,5.663
		c0,5.126-5.73,6.701-9.853,6.701c-3.417,0-8.645-1.173-9.75-5.193C99.297,30.2,101.912,29.698,102.18,31.071z"/>
	<path fill="#FFFFFF" d="M125.572,30.067v5.394c0,1.542-2.413,1.508-2.413,0.033V16.195c0-0.704,0.569-1.173,1.24-1.173h7.271
		c5.797,0,8.511,3.853,8.511,7.707c0,4.021-2.747,7.339-8.611,7.339H125.572z M125.572,27.89h5.997c4.456,0,6.299-2.615,6.232-5.161
		c-0.034-2.748-2.212-5.528-6.099-5.528h-6.131V27.89z"/>
	<path fill="#FFFFFF" d="M143.299,25.342c0-5.261,3.551-9.75,8.879-10.588c1.24-0.168,2.379-0.134,3.553,0
		c5.159,0.804,9.146,5.093,9.146,10.588c0,6.97-5.026,11.393-10.722,11.393C148.125,36.734,143.299,32.445,143.299,25.342z
		 M145.812,25.442c0,5.495,3.619,8.98,8.344,8.98c4.523,0,8.243-3.352,8.243-8.98c0-4.323-2.85-7.773-6.971-8.443
		c-1.004-0.134-1.976-0.134-2.915,0C148.458,17.635,145.812,20.886,145.812,25.442z"/>
	<path fill="#FFFFFF" d="M172.018,28.894v6.5c0,1.542-2.445,1.542-2.445,0.034V16.195c0-0.704,0.502-1.173,1.239-1.173h7.941
		c5.797,0,8.745,3.284,8.745,7.204c0,3.385-1.844,5.831-5.964,6.534l5.429,5.864c1.272,1.272-0.569,2.747-1.677,1.608l-6.768-7.339
		H172.018z M172.018,26.782h6.769c4.39,0,6.299-2.043,6.232-4.557c-0.033-2.747-2.345-4.958-6.232-4.958h-6.769V26.782z"/>
	<path fill="#FFFFFF" d="M194.003,34.154h13.234c1.407,0,1.608,2.212,0,2.212h-14.106c-0.938,0-1.541-0.671-1.541-1.475V16.496
		c0-0.771,0.603-1.44,1.541-1.44h14.141c1.44,0,1.373,2.145-0.034,2.145h-13.234v7.539h12.598c1.341,0,1.408,2.144,0,2.144h-12.598
		V34.154z"/>
</g>
<path fill="#FFFFFF" d="M87.128,29.429l0.002-0.001c-0.008-0.004-0.016-0.008-0.023-0.013c-0.045-0.024-0.089-0.048-0.133-0.071
	c-10.623-5.665-10.815-8.637-11.383-17.227c0-0.011-0.004-0.02-0.004-0.03c-0.015-0.149-0.041-0.296-0.062-0.443
	c-0.016-0.097-0.023-0.198-0.044-0.291c-0.792-4.553-4.754-8.019-9.534-8.019c-5.039,0-9.175,3.848-9.641,8.764
	c0,0.006-0.003,0.013-0.003,0.02c0,0.01,0,0.02,0,0.029c-0.026,0.289-0.044,0.58-0.044,0.875c0,0.192,0.018,0.38,0.029,0.568
	c-0.434,8.475-7.876,13.661-12.105,16.192c-0.019,0.009-0.032,0.015-0.032,0.015l0.002,0.003c-2.634,1.731-4.376,4.709-4.376,8.097
	c0,5.35,4.337,9.688,9.688,9.688c2.958,0,4.97-1.377,7.379-3.42c0.007-0.007,0.014-0.012,0.021-0.018
	c0.026-0.023,0.053-0.046,0.079-0.068c9.384-8.078,18.084,0.068,18.084,0.068l0.003-0.003c1.914,1.726,4.43,3.44,7.397,3.44
	c5.351,0,9.688-4.338,9.688-9.688C92.116,34.253,90.102,31.083,87.128,29.429z"/>
</svg>
