<?xml version="1.0" encoding="utf-8"?>
<!-- Generator: Adobe Illustrator 15.0.0, SVG Export Plug-In . SVG Version: 6.00 Build 0)  -->
<!DOCTYPE svg PUBLIC "-//W3C//DTD SVG 1.1//EN" "http://www.w3.org/Graphics/SVG/1.1/DTD/svg11.dtd" [
	<!ENTITY ns_flows "http://ns.adobe.com/Flows/1.0/">
	<!ENTITY ns_extend "http://ns.adobe.com/Extensibility/1.0/">
	<!ENTITY ns_ai "http://ns.adobe.com/AdobeIllustrator/10.0/">
	<!ENTITY ns_graphs "http://ns.adobe.com/Graphs/1.0/">
]>
<svg version="1.1" id="Calque_1" xmlns:x="&ns_extend;" xmlns:i="&ns_ai;" xmlns:graph="&ns_graphs;"
	 xmlns="http://www.w3.org/2000/svg" xmlns:xlink="http://www.w3.org/1999/xlink" xmlns:a="http://ns.adobe.com/AdobeSVGViewerExtensions/3.0/"
	 x="0px" y="0px" width="74.201px" height="69.131px" viewBox="0 0 74.201 69.131" enable-background="new 0 0 74.201 69.131"
	 xml:space="preserve">
<g>
	<g>
		<path fill="none" d="M21.683,50.043c0-3.412,1.073-6.574,2.889-9.182c-5.087,1.998-8.623,4.955-11.51,7.385
			c-0.732,0.615-1.418,1.193-2.074,1.704l-0.47,0.367l0.443,0.399c5.035,4.532,9.607,7.583,14.292,9.419
			C23.024,57.371,21.683,53.863,21.683,50.043z"/>
		<path fill="none" d="M37.795,39.588c-2.171,0-4.188,0.666-5.861,1.803c3.504,0.284,6.253,3.1,6.253,6.539
			c0,3.626-3.057,6.568-6.835,6.568c-1.222,0-2.367-0.312-3.359-0.853c1.473,3.993,5.305,6.853,9.803,6.853
			c3.032,0,5.758-1.306,7.67-3.374c-0.518,0.328-1.137,0.522-1.804,0.522c-1.809,0-3.28-1.411-3.28-3.148
			c0-1.742,1.471-3.15,3.28-3.15c1.81,0,3.279,1.408,3.279,3.15c0,0.276-0.049,0.539-0.119,0.795
			c0.902-1.545,1.428-3.335,1.428-5.25C48.25,44.277,43.559,39.588,37.795,39.588z"/>
		<path fill="none" d="M51.569,41.724c1.475,2.432,2.34,5.273,2.34,8.319c0,4.026-1.494,7.702-3.944,10.53
			c5.939-1.834,10.768-5.092,14.417-9.764l0.31-0.396l-0.398-0.308C59.452,46.363,55.486,43.606,51.569,41.724z"/>
		<path fill="#FFFFFF" d="M37.796,32.455c-19.751,0-33.781,15.959-35.741,18.324c1.919,2.38,15.184,17.852,35.288,17.852
			c23.249,0,33.46-15.825,34.838-18.161C70.343,48.282,57.236,32.455,37.796,32.455z M46.822,55.293
			c0.07-0.256,0.119-0.519,0.119-0.795c0-1.742-1.469-3.15-3.279-3.15c-1.809,0-3.28,1.408-3.28,3.15
			c0,1.737,1.471,3.148,3.28,3.148c0.667,0,1.286-0.194,1.804-0.522c-1.912,2.068-4.638,3.374-7.67,3.374
			c-4.498,0-8.33-2.859-9.803-6.853c0.993,0.54,2.138,0.853,3.359,0.853c3.778,0,6.835-2.942,6.835-6.568
			c0-3.439-2.749-6.255-6.253-6.539c1.673-1.137,3.69-1.803,5.861-1.803c5.764,0,10.455,4.689,10.455,10.455
			C48.25,51.958,47.725,53.748,46.822,55.293z M10.518,50.317l0.47-0.367c0.656-0.511,1.341-1.089,2.074-1.704
			c2.887-2.43,6.423-5.387,11.51-7.385c-1.816,2.607-2.889,5.77-2.889,9.182c0,3.82,1.342,7.328,3.57,10.093
			c-4.685-1.836-9.257-4.887-14.292-9.419L10.518,50.317z M64.382,50.81c-3.649,4.672-8.478,7.93-14.417,9.764
			c2.45-2.828,3.944-6.504,3.944-10.53c0-3.046-0.865-5.888-2.34-8.319c3.917,1.883,7.882,4.64,12.725,8.383l0.398,0.308
			L64.382,50.81z"/>
	</g>
	<g>
		<path fill="#FFFFFF" d="M36.939,0.25c-1.996,0-3.62,1.624-3.62,3.62v18.934c0,1.995,1.624,3.619,3.62,3.619s3.62-1.624,3.62-3.619
			V3.87C40.559,1.874,38.935,0.25,36.939,0.25z"/>
		<path fill="#FFFFFF" d="M24.113,8.12c-1.995,0-3.617,1.624-3.617,3.619v12.534c0,1.995,1.623,3.618,3.617,3.618
			c1.996,0,3.62-1.623,3.62-3.618V11.739C27.733,9.744,26.109,8.12,24.113,8.12z"/>
		<path fill="#FFFFFF" d="M49.763,8.12c-1.995,0-3.618,1.624-3.618,3.619v12.534c0,1.995,1.623,3.618,3.618,3.618
			c1.996,0,3.62-1.623,3.62-3.618V11.739C53.382,9.744,51.759,8.12,49.763,8.12z"/>
	</g>
</g>
</svg>
