<?xml version="1.0" encoding="utf-8"?>
<!-- Generator: Adobe Illustrator 15.0.0, SVG Export Plug-In . SVG Version: 6.00 Build 0)  -->
<!DOCTYPE svg PUBLIC "-//W3C//DTD SVG 1.1//EN" "http://www.w3.org/Graphics/SVG/1.1/DTD/svg11.dtd" [
	<!ENTITY ns_flows "http://ns.adobe.com/Flows/1.0/">
	<!ENTITY ns_extend "http://ns.adobe.com/Extensibility/1.0/">
	<!ENTITY ns_ai "http://ns.adobe.com/AdobeIllustrator/10.0/">
	<!ENTITY ns_graphs "http://ns.adobe.com/Graphs/1.0/">
]>
<svg version="1.1" id="Calque_1" xmlns:x="&ns_extend;" xmlns:i="&ns_ai;" xmlns:graph="&ns_graphs;"
	 xmlns="http://www.w3.org/2000/svg" xmlns:xlink="http://www.w3.org/1999/xlink" xmlns:a="http://ns.adobe.com/AdobeSVGViewerExtensions/3.0/"
	 x="0px" y="0px" width="179.42px" height="157.963px" viewBox="0 0 179.42 157.963" enable-background="new 0 0 179.42 157.963"
	 xml:space="preserve">
<polygon fill="#81E2A1" points="4.068,137.052 82.273,20.477 89.875,15.877 106.53,21.158 174.272,134.664 168.336,143.157 
	163.098,156.846 15.869,156.849 "/>
<g opacity="0.2">
	<g>
		<path fill="#818181" d="M177.019,130.646c-3.193-5.561-26.737-47.583-46.191-80.69l10.962-21.754l6.836,9.803l2.224,3.189
			l1.466-3.338l14.587-33.195l-16.377,27.72l-6.373-11.988l-2.256-4.241l-3.038,4.188l-14.665,20.229
			c-8.926-15.186-15.974-27.16-17.983-30.552C102.438,3.651,96.483,0,89.875,0c-6.804,0-13.09,3.935-16.402,10.271
			c-1.033,1.975-5.027,8.973-15.602,27.028L45.576,20.34l-3.037-4.188l-2.256,4.241L33.91,32.381L17.534,4.661l14.587,33.195
			l1.466,3.338l2.224-3.189l6.836-9.803l8.883,18.009c-10.411,17.73-24.545,43.584-46.668,80.958l-1.731,2.927
			c-3.758,6.081-4.151,12.954-1.08,18.855c2.849,5.475,8.273,9.012,13.818,9.012l0.29-0.004c2.227-0.05,16.142-0.074,41.36-0.074
			c41.077,0,98.578,0.067,105.281,0.075l0.298,0.001c5.565,0,10.918-3.508,13.971-9.152
			C180.222,142.977,180.203,136.188,177.019,130.646z M168.336,143.641c-1.237,2.287-3.341,3.824-5.241,3.824l-0.284-0.001
			c-6.704-0.007-64.211-0.075-105.292-0.075c-25.29,0-39.276,0.026-41.573,0.077l-0.078,0.001c-1.865,0-3.922-1.453-5.006-3.532
			c-0.903-1.738-1.518-4.562,0.747-8.228l1.782-3.012C55.445,61.654,79.264,21.062,82.273,15.309
			c1.554-2.97,4.466-4.813,7.602-4.813c3.104,0,5.878,1.796,7.81,5.054c6.5,10.965,65.669,111.684,70.734,120.503
			C170.289,139.306,168.983,142.443,168.336,143.641z"/>
	</g>
</g>
<g>
	<g>
		<path fill="#FFFFFF" d="M177.019,131.849c-3.193-5.315-27.852-45.486-47.307-77.136l12.078-20.795l6.836,9.37l2.224,3.049
			l1.466-3.189l14.587-31.733l-16.377,26.499l-6.373-11.461l-2.256-4.056l-3.038,4.005l-14.665,19.338
			c-8.926-14.516-15.974-25.963-17.983-29.205c-3.774-6.086-9.729-9.576-16.336-9.576c-6.804,0-13.09,3.761-16.402,9.816
			c-1.033,1.89-5.027,8.578-15.602,25.84L45.576,26.401l-3.037-4.005l-2.256,4.056L33.91,37.913L17.534,11.414l14.587,31.733
			l1.466,3.189l2.224-3.049l6.836-9.37l9.998,17.215c-10.411,16.95-25.66,41.665-47.783,77.393l-1.731,2.798
			c-3.758,5.813-4.151,12.383-1.08,18.025c2.849,5.233,8.273,8.614,13.818,8.614l0.29-0.004c2.227-0.047,16.142-0.071,41.36-0.071
			c41.077,0,98.578,0.064,105.281,0.072l0.298,0.001c5.565,0,10.918-3.354,13.971-8.749
			C180.222,143.638,180.203,137.146,177.019,131.849z M168.336,144.272c-1.237,2.186-3.341,3.655-5.241,3.655l-0.284-0.001
			c-6.704-0.008-64.211-0.072-105.292-0.072c-25.29,0-39.276,0.025-41.573,0.073l-0.078,0.002c-1.865,0-3.922-1.389-5.006-3.378
			c-0.903-1.661-1.518-4.36,0.747-7.864l1.782-2.88C55.445,65.896,79.264,27.092,82.273,21.591c1.554-2.838,4.466-4.6,7.602-4.6
			c3.104,0,5.878,1.716,7.81,4.831c6.5,10.482,65.669,106.765,70.734,115.195C170.289,140.127,168.983,143.127,168.336,144.272z"/>
	</g>
</g>
<g>
	<path fill="#78D193" d="M168.413,136.998c-0.044-0.074-0.103-0.17-0.155-0.257c-0.035,1.643-0.642,2.998-1.021,3.684
		c-1.21,2.186-3.271,3.655-5.13,3.655l-0.278-0.001c-6.563-0.007-62.863-0.071-103.082-0.071c-24.758,0-38.452,0.024-40.7,0.072
		l-0.077,0.003c-1.826,0-3.84-1.39-4.9-3.378c-0.733-1.375-1.265-3.464-0.172-6.129l-1.293,2.092
		c-2.265,3.504-1.65,6.203-0.747,7.864c1.083,1.989,3.141,3.378,5.006,3.378l0.078-0.002c2.296-0.048,16.283-0.073,41.572-0.073
		c41.082,0,98.588,0.064,105.292,0.072l0.284,0.001c1.9,0,4.004-1.47,5.241-3.655C168.977,143.107,170.282,140.106,168.413,136.998z
		"/>
</g>
<g>
	<g>
		<path fill="none" d="M71.963,113.769c0-3.804,1.196-7.329,3.221-10.236c-5.67,2.228-9.613,5.524-12.831,8.232
			c-0.816,0.687-1.581,1.331-2.312,1.9l-0.524,0.409l0.494,0.445c5.613,5.052,10.709,8.453,15.933,10.5
			C73.459,121.938,71.963,118.027,71.963,113.769z"/>
		<path fill="none" d="M89.925,102.113c-2.42,0-4.669,0.742-6.534,2.01c3.906,0.316,6.971,3.455,6.971,7.289
			c0,4.042-3.408,7.322-7.62,7.322c-1.362,0-2.638-0.349-3.745-0.95c1.642,4.451,5.913,7.639,10.928,7.639
			c3.379,0,6.418-1.455,8.55-3.761c-0.578,0.365-1.267,0.582-2.011,0.582c-2.017,0-3.657-1.573-3.657-3.51
			c0-1.942,1.64-3.512,3.657-3.512c2.018,0,3.656,1.569,3.656,3.512c0,0.309-0.055,0.602-0.132,0.887
			c1.006-1.723,1.592-3.718,1.592-5.853C101.58,107.341,96.351,102.113,89.925,102.113z"/>
		<path fill="none" d="M105.28,104.494c1.644,2.711,2.609,5.879,2.609,9.274c0,4.488-1.666,8.586-4.396,11.738
			c6.621-2.044,12.003-5.676,16.071-10.884l0.345-0.441l-0.443-0.343C114.067,109.666,109.646,106.593,105.28,104.494z"/>
		<path fill="#FFFFFF" d="M89.926,94.161c-22.018,0-37.658,17.791-39.843,20.428c2.14,2.653,16.926,19.9,39.337,19.9
			c25.917,0,37.301-17.642,38.837-20.245C126.209,111.806,111.597,94.161,89.926,94.161z M99.988,119.621
			c0.078-0.285,0.132-0.578,0.132-0.887c0-1.942-1.638-3.512-3.656-3.512c-2.017,0-3.657,1.569-3.657,3.512
			c0,1.937,1.64,3.51,3.657,3.51c0.744,0,1.433-0.217,2.011-0.582c-2.132,2.306-5.171,3.761-8.55,3.761
			c-5.015,0-9.286-3.188-10.928-7.639c1.106,0.602,2.383,0.95,3.745,0.95c4.211,0,7.62-3.28,7.62-7.322
			c0-3.834-3.064-6.973-6.971-7.289c1.865-1.268,4.114-2.01,6.534-2.01c6.425,0,11.655,5.228,11.655,11.655
			C101.58,115.903,100.994,117.898,99.988,119.621z M59.517,114.074l0.524-0.409c0.731-0.569,1.496-1.214,2.312-1.9
			c3.218-2.708,7.161-6.005,12.831-8.232c-2.025,2.907-3.221,6.433-3.221,10.236c0,4.259,1.496,8.169,3.98,11.251
			c-5.223-2.047-10.319-5.448-15.933-10.5L59.517,114.074z M119.563,114.623c-4.067,5.208-9.45,8.84-16.071,10.884
			c2.73-3.152,4.396-7.25,4.396-11.738c0-3.396-0.965-6.563-2.609-9.274c4.366,2.099,8.787,5.172,14.185,9.345l0.443,0.343
			L119.563,114.623z"/>
	</g>
	<g>
		<path fill="#FFFFFF" d="M88.97,58.26c-2.225,0-4.035,1.811-4.035,4.036v21.106c0,2.225,1.81,4.034,4.035,4.034
			c2.226,0,4.036-1.81,4.036-4.034V62.296C93.006,60.07,91.196,58.26,88.97,58.26z"/>
		<path fill="#FFFFFF" d="M74.672,67.033c-2.224,0-4.033,1.811-4.033,4.035v13.973c0,2.224,1.809,4.033,4.033,4.033
			c2.225,0,4.035-1.81,4.035-4.033V71.068C78.708,68.844,76.897,67.033,74.672,67.033z"/>
		<path fill="#FFFFFF" d="M103.266,67.033c-2.224,0-4.033,1.811-4.033,4.035v13.973c0,2.224,1.809,4.033,4.033,4.033
			c2.225,0,4.035-1.81,4.035-4.033V71.068C107.301,68.844,105.491,67.033,103.266,67.033z"/>
	</g>
</g>
</svg>
